<svg width="1667" height="142" viewBox="0 0 1667 142" fill="none" xmlns="http://www.w3.org/2000/svg">
<path d="M15.4 27.2C15.5 26.6 16.1 26.3 16.7 26.4L56.8 36.3C57.4 36.4 57.7 37 57.6 37.6C57.5 38.1 57.1 38.4 56.6 38.4C56.5 38.4 56.4 38.4 56.3 38.4L16.2 28.5C15.6 28.3 15.3 27.7 15.4 27.2ZM7.6 115.1H5.4V117.3C5.4 117.9 4.9 118.4 4.3 118.4C3.7 118.4 3.2 117.9 3.2 117.3V115.1H1.1C0.5 115.1 0 114.6 0 114C0 113.4 0.5 112.9 1.1 112.9H3.3V110.7C3.3 110.1 3.8 109.6 4.4 109.6C5 109.6 5.5 110.1 5.5 110.7V112.9H7.7C8.3 112.9 8.8 113.4 8.8 114C8.8 114.6 8.1 115.1 7.6 115.1ZM7.7 27.3C6.6 27.3 5.7 26.4 5.7 25.3C5.7 24.2 6.6 23.3 7.7 23.3C8.8 23.3 9.7 24.2 9.7 25.3C9.7 26.4 8.8 27.3 7.7 27.3ZM27.3 60.6C27.1 60.7 27 60.7 26.8 60.7C26.4 60.7 26.1 60.5 25.9 60.2L11 32.9C10.7 32.4 10.9 31.8 11.4 31.5C11.9 31.2 12.5 31.4 12.8 31.9L27.7 59.2C28 59.7 27.8 60.3 27.3 60.6ZM32.1 69.5C31 69.5 30.1 68.6 30.1 67.5C30.1 66.4 31 65.5 32.1 65.5C33.2 65.5 34.1 66.4 34.1 67.5C34.1 68.6 33.2 69.5 32.1 69.5ZM49.3 91.7C48.2 91.7 47.3 90.8 47.3 89.7C47.3 88.6 48.2 87.7 49.3 87.7C50.4 87.7 51.3 88.6 51.3 89.7C51.3 90.8 50.4 91.7 49.3 91.7ZM59.3 44.3L37.8 63.3C37.6 63.5 37.4 63.6 37.1 63.6C36.8 63.6 36.5 63.5 36.3 63.2C35.9 62.8 36 62.1 36.4 61.7L57.9 42.7C58.3 42.3 59 42.4 59.4 42.8C59.8 43.3 59.8 43.9 59.3 44.3ZM63 41.4C61.9 41.4 61 40.5 61 39.4C61 38.3 61.9 37.4 63 37.4C64.1 37.4 65 38.3 65 39.4C65 40.5 64.1 41.4 63 41.4ZM97.5 72C96.4 72 95.5 71.1 95.5 70C95.5 68.9 96.4 68 97.5 68C98.6 68 99.5 68.9 99.5 70C99.5 71.1 98.6 72 97.5 72ZM117.3 113.8C116.2 113.8 115.3 112.9 115.3 111.8C115.3 110.7 116.2 109.8 117.3 109.8C118.4 109.8 119.3 110.7 119.3 111.8C119.3 112.9 118.4 113.8 117.3 113.8ZM137.8 16.8C136 16.8 134.6 15.4 134.6 13.6C134.6 11.8 136 10.4 137.8 10.4C139.6 10.4 141 11.8 141 13.6C141 15.4 139.5 16.8 137.8 16.8ZM170.7 106.3C169.6 106.3 168.7 105.4 168.7 104.3C168.7 103.2 169.6 102.3 170.7 102.3C171.8 102.3 172.7 103.2 172.7 104.3C172.7 105.4 171.8 106.3 170.7 106.3ZM183.5 53.1H179.8V56.8C179.8 57.4 179.3 57.9 178.7 57.9C178.1 57.9 177.7 57.4 177.7 56.8V53.1H174C173.4 53.1 172.9 52.6 172.9 52C172.9 51.4 173.4 50.9 174 50.9H177.7V47.2C177.7 46.6 178.2 46.1 178.7 46.1C179.3 46.1 179.8 46.6 179.8 47.2V51H183.5C184.1 51 184.6 51.5 184.6 52.1C184.6 52.6 184.1 53.1 183.5 53.1ZM211.7 124.6C210.6 124.6 209.7 123.7 209.7 122.6C209.7 121.5 210.6 120.6 211.7 120.6C212.8 120.6 213.7 121.5 213.7 122.6C213.7 123.7 212.8 124.6 211.7 124.6ZM229.6 84.2C228.5 84.2 227.6 83.3 227.6 82.2C227.6 81.1 228.5 80.2 229.6 80.2C230.7 80.2 231.6 81.1 231.6 82.2C231.6 83.3 230.7 84.2 229.6 84.2ZM230.2 18.7C229.1 18.7 228.2 17.8 228.2 16.7C228.2 15.6 229.1 14.7 230.2 14.7C231.3 14.7 232.2 15.6 232.2 16.7C232.3 17.8 231.4 18.7 230.2 18.7ZM258.5 135.6C257.4 135.6 256.5 134.7 256.5 133.6C256.5 132.5 257.4 131.6 258.5 131.6C259.6 131.6 260.5 132.5 260.5 133.6C260.5 134.7 259.6 135.6 258.5 135.6ZM284.5 117.7C283.4 117.7 282.5 116.8 282.5 115.7C282.5 114.6 283.4 113.7 284.5 113.7C285.6 113.7 286.5 114.6 286.5 115.7C286.5 116.8 285.6 117.7 284.5 117.7ZM317.8 63.4C318.9 63.4 319.8 64.3 319.8 65.4C319.8 66.5 318.9 67.4 317.8 67.4C316.7 67.4 315.8 66.5 315.8 65.4C315.8 64.3 316.7 63.4 317.8 63.4ZM289.3 13.8C289.3 13.2 289.8 12.7 290.4 12.7H294.1V9.1C294.1 8.5 294.6 8 295.2 8C295.8 8 296.3 8.5 296.3 9.1V12.8H300C300.6 12.8 301.1 13.3 301.1 13.9C301.1 14.5 300.6 15 300 15H296.3V18.7C296.3 19.3 295.8 19.8 295.2 19.8C294.6 19.8 294.1 19.3 294.1 18.7V15H290.4C289.8 14.9 289.3 14.4 289.3 13.8ZM334.4 128C334.3 128.5 333.9 128.8 333.4 128.8C333.3 128.8 333.2 128.8 333.1 128.8L293 118.9C292.4 118.8 292.1 118.2 292.2 117.6C292.3 117 292.9 116.7 293.5 116.8L333.6 126.7C334.2 126.9 334.6 127.4 334.4 128ZM336.8 24.8C336.8 23.7 337.7 22.8 338.8 22.8C339.9 22.8 340.8 23.7 340.8 24.8C340.8 25.9 339.9 26.8 338.8 26.8C337.7 26.8 336.8 25.9 336.8 24.8ZM339.9 131.8C338.8 131.8 337.9 130.9 337.9 129.8C337.9 128.7 338.8 127.8 339.9 127.8C341 127.8 341.9 128.7 341.9 129.8C341.9 130.9 341 131.8 339.9 131.8ZM374.5 68.7H372.3V70.9C372.3 71.5 371.8 72 371.3 72C370.7 72 370.2 71.5 370.2 70.9V68.7H368C367.4 68.7 366.9 68.2 366.9 67.6C366.9 67 367.4 66.5 368 66.5H370.2V64.3C370.2 63.7 370.7 63.2 371.3 63.2C371.9 63.2 372.3 63.7 372.3 64.3V66.5H374.5C375.1 66.5 375.6 67 375.6 67.6C375.6 68.2 375.1 68.7 374.5 68.7ZM414.6 107.2C412.8 107.2 411.4 105.8 411.4 104C411.4 102.2 412.8 100.8 414.6 100.8C416.4 100.8 417.8 102.2 417.8 104C417.8 105.8 416.4 107.2 414.6 107.2ZM434.7 51.3C434.4 52.4 433.3 53 432.2 52.7C431.1 52.4 430.5 51.3 430.8 50.2C431.1 49.1 432.2 48.5 433.3 48.8C434.4 49.1 435 50.3 434.7 51.3ZM433.3 12.1C432.2 12.1 431.3 11.2 431.3 10.1C431.3 9 432.2 8.1 433.3 8.1C434.4 8.1 435.3 9 435.3 10.1C435.3 11.2 434.4 12.1 433.3 12.1ZM443.8 72C443.7 72.1 443.5 72.1 443.3 72.1C442.9 72.1 442.5 71.9 442.4 71.5L435.5 57.5C435.2 57 435.5 56.4 436 56.1C436.5 55.8 437.1 56.1 437.4 56.6L444.3 70.6C444.5 71.1 444.3 71.8 443.8 72ZM448.7 78.2C448.4 79.3 447.3 79.9 446.2 79.6C445.1 79.3 444.5 78.2 444.8 77.1C445.1 76 446.2 75.4 447.3 75.7C448.3 76 448.9 77.1 448.7 78.2ZM569.1 16.8C569.2 16.2 569.8 15.9 570.4 16L610.5 25.9C611.1 26 611.4 26.6 611.3 27.2C611.2 27.7 610.8 28 610.3 28C610.2 28 610.1 28 610 28L569.9 18.1C569.3 17.9 569 17.3 569.1 16.8ZM479.5 78.8L453.5 80.2C453.5 80.2 453.5 80.2 453.4 80.2C452.8 80.2 452.4 79.8 452.4 79.2C452.4 78.6 452.8 78.1 453.4 78.1L479.4 76.7C480 76.7 480.5 77.1 480.5 77.7C480.5 78.3 480 78.8 479.5 78.8ZM489.1 77.8C488.8 78.9 487.7 79.5 486.6 79.2C485.5 78.9 484.9 77.8 485.2 76.7C485.5 75.6 486.6 75 487.7 75.3C488.7 75.6 489.4 76.7 489.1 77.8ZM507.1 109.1C506 109.1 505.1 108.2 505.1 107.1C505.1 106 506 105.1 507.1 105.1C508.2 105.1 509.1 106 509.1 107.1C509.1 108.2 508.2 109.1 507.1 109.1ZM535.3 34.8C534.2 34.8 533.3 33.9 533.3 32.8C533.3 31.7 534.2 30.8 535.3 30.8C536.4 30.8 537.3 31.7 537.3 32.8C537.3 33.9 536.5 34.8 535.3 34.8ZM561.2 104.8H559V107C559 107.6 558.5 108.1 557.9 108.1C557.3 108.1 556.8 107.6 556.8 107V104.8H554.6C554 104.8 553.6 104.3 553.6 103.7C553.6 103.1 554.1 102.6 554.6 102.6H556.8V100.4C556.8 99.8 557.3 99.3 557.9 99.3C558.5 99.3 559 99.8 559 100.4V102.6H561.2C561.8 102.6 562.3 103.1 562.3 103.7C562.3 104.3 561.8 104.8 561.2 104.8ZM561.3 16.9C560.2 16.9 559.3 16 559.3 14.9C559.3 13.8 560.2 12.9 561.3 12.9C562.4 12.9 563.3 13.8 563.3 14.9C563.3 16 562.5 16.9 561.3 16.9ZM581 50.2C580.8 50.3 580.7 50.3 580.5 50.3C580.1 50.3 579.8 50.1 579.6 49.8L564.7 22.5C564.4 22 564.6 21.4 565.1 21.1C565.6 20.8 566.2 21 566.5 21.5L581.4 48.8C581.7 49.3 581.5 49.9 581 50.2ZM585.8 59.2C584.7 59.2 583.8 58.3 583.8 57.2C583.8 56.1 584.7 55.2 585.8 55.2C586.9 55.2 587.8 56.1 587.8 57.2C587.8 58.3 586.9 59.2 585.8 59.2ZM602.9 81.3C601.8 81.3 600.9 80.4 600.9 79.3C600.9 78.2 601.8 77.3 602.9 77.3C604 77.3 604.9 78.2 604.9 79.3C605 80.4 604.1 81.3 602.9 81.3ZM613 33.9L591.5 52.9C591.3 53.1 591.1 53.2 590.8 53.2C590.5 53.2 590.2 53.1 590 52.8C589.6 52.4 589.7 51.7 590.1 51.3L611.6 32.3C612 31.9 612.7 32 613.1 32.4C613.5 32.9 613.4 33.6 613 33.9ZM616.7 31C615.6 31 614.7 30.1 614.7 29C614.7 27.9 615.6 27 616.7 27C617.8 27 618.7 27.9 618.7 29C618.7 30.1 617.8 31 616.7 31ZM651.2 61.6C650.1 61.6 649.2 60.7 649.2 59.6C649.2 58.5 650.1 57.6 651.2 57.6C652.3 57.6 653.2 58.5 653.2 59.6C653.2 60.7 652.3 61.6 651.2 61.6ZM671 103.4C669.9 103.4 669 102.5 669 101.4C669 100.3 669.9 99.4 671 99.4C672.1 99.4 673 100.3 673 101.4C673 102.5 672.1 103.4 671 103.4ZM689.7 135.2C687.9 135.2 686.5 133.8 686.5 132C686.5 130.2 687.9 128.8 689.7 128.8C691.5 128.8 692.9 130.2 692.9 132C692.9 133.8 691.5 135.2 689.7 135.2ZM691.4 6.4C689.6 6.4 688.2 5 688.2 3.2C688.2 1.4 689.6 0 691.4 0C693.2 0 694.6 1.4 694.6 3.2C694.6 5 693.2 6.4 691.4 6.4ZM724.4 96C723.3 96 722.4 95.1 722.4 94C722.4 92.9 723.3 92 724.4 92C725.5 92 726.4 92.9 726.4 94C726.4 95.1 725.5 96 724.4 96ZM735.6 141.9C734.5 141.9 733.6 141 733.6 139.9C733.6 138.8 734.5 137.9 735.6 137.9C736.7 137.9 737.6 138.8 737.6 139.9C737.6 141 736.7 141.9 735.6 141.9ZM737.2 42.7H733.5V46.4C733.5 47 733 47.5 732.4 47.5C731.8 47.5 731.3 47 731.3 46.4V42.7H727.6C727 42.7 726.5 42.2 726.5 41.6C726.5 41 727 40.5 727.6 40.5H731.3V36.8C731.3 36.2 731.8 35.7 732.4 35.7C733 35.7 733.5 36.2 733.5 36.8V40.5H737.2C737.8 40.5 738.3 41 738.3 41.6C738.3 42.2 737.8 42.7 737.2 42.7ZM761.1 118.4L742 134.4C741.8 134.6 741.6 134.6 741.3 134.6C741 134.6 740.7 134.5 740.5 134.2C740.1 133.8 740.2 133.1 740.6 132.7L759.7 116.7C760.1 116.3 760.8 116.4 761.2 116.8C761.6 117.4 761.5 118 761.1 118.4ZM765.3 114.2C764.2 114.2 763.3 113.3 763.3 112.2C763.3 111.1 764.2 110.2 765.3 110.2C766.4 110.2 767.3 111.1 767.3 112.2C767.3 113.3 766.5 114.2 765.3 114.2ZM783.3 73.8C782.2 73.8 781.3 72.9 781.3 71.8C781.3 70.7 782.2 69.8 783.3 69.8C784.4 69.8 785.3 70.7 785.3 71.8C785.3 72.9 784.4 73.8 783.3 73.8ZM783.9 8.3C782.8 8.3 781.9 7.4 781.9 6.3C781.9 5.2 782.8 4.3 783.9 4.3C785 4.3 785.9 5.2 785.9 6.3C785.9 7.4 785 8.3 783.9 8.3ZM795.4 114.7C794.3 114.7 793.4 113.8 793.4 112.7C793.4 111.6 794.3 110.7 795.4 110.7C796.5 110.7 797.4 111.6 797.4 112.7C797.4 113.8 796.5 114.7 795.4 114.7ZM815.9 84.8C814.8 85.1 813.7 84.5 813.4 83.4C813.1 82.3 813.7 81.2 814.8 80.9C815.9 80.6 817 81.2 817.3 82.3C817.6 83.4 817 84.5 815.9 84.8ZM849.1 85.8L823 84.4C822.4 84.4 822 83.9 822 83.3C822 82.7 822.5 82.3 823.1 82.3L849.1 83.7C849.7 83.7 850.1 84.2 850.1 84.8C850.1 85.4 849.7 85.8 849.1 85.8ZM856.3 85.1C855.2 85.4 854.1 84.8 853.8 83.7C853.5 82.6 854.1 81.5 855.2 81.2C856.3 80.9 857.4 81.5 857.7 82.6C858 83.7 857.4 84.8 856.3 85.1ZM867.1 63.2L860.2 77.2C860 77.6 859.6 77.8 859.3 77.8C859.1 77.8 859 77.8 858.8 77.7C858.3 77.4 858.1 76.8 858.3 76.3L865.2 62.3C865.5 61.8 866.1 61.6 866.6 61.8C867.1 62 867.3 62.6 867.1 63.2ZM869.2 13.7C870.3 13.7 871.2 14.6 871.2 15.7C871.2 16.8 870.3 17.7 869.2 17.7C868.1 17.7 867.2 16.8 867.2 15.7C867.2 14.6 868.1 13.7 869.2 13.7ZM870.2 58.3C869.1 58.6 868 58 867.7 56.9C867.4 55.8 868 54.7 869.1 54.4C870.2 54.1 871.3 54.7 871.6 55.8C871.9 56.9 871.3 58 870.2 58.3ZM887.9 112.8C886.1 112.8 884.7 111.4 884.7 109.6C884.7 107.8 886.1 106.4 887.9 106.4C889.7 106.4 891.1 107.8 891.1 109.6C891.1 111.3 889.7 112.8 887.9 112.8ZM934.5 74.3H932.3V76.5C932.3 77.1 931.8 77.6 931.2 77.6C930.6 77.6 930.2 77.1 930.2 76.5V74.3H928C927.4 74.3 926.9 73.8 926.9 73.2C926.9 72.6 927.4 72.1 928 72.1H930.2V70C930.2 69.4 930.7 68.9 931.2 68.9C931.8 68.9 932.3 69.4 932.3 70V72.2H934.5C935.1 72.2 935.6 72.7 935.6 73.3C935.6 73.9 935.1 74.3 934.5 74.3ZM962.6 137.4C961.5 137.4 960.6 136.5 960.6 135.4C960.6 134.3 961.5 133.4 962.6 133.4C963.7 133.4 964.6 134.3 964.6 135.4C964.6 136.5 963.8 137.4 962.6 137.4ZM963.7 32.4C962.6 32.4 961.7 31.5 961.7 30.4C961.7 29.3 962.6 28.4 963.7 28.4C964.8 28.4 965.7 29.3 965.7 30.4C965.7 31.5 964.8 32.4 963.7 32.4ZM984.7 69C985.8 69 986.7 69.9 986.7 71C986.7 72.1 985.8 73 984.7 73C983.6 73 982.7 72.1 982.7 71C982.7 69.9 983.6 69 984.7 69ZM1009.5 124.4L969.4 134.3C969.3 134.3 969.2 134.3 969.1 134.3C968.6 134.3 968.2 134 968.1 133.5C968 132.9 968.3 132.4 968.9 132.2L1009 122.3C1009.6 122.2 1010.1 122.5 1010.3 123.1C1010.4 123.7 1010 124.3 1009.5 124.4ZM1012.1 20.5H1008.4V24.2C1008.4 24.8 1007.9 25.3 1007.3 25.3C1006.7 25.3 1006.2 24.8 1006.2 24.2V20.5H1002.5C1001.9 20.5 1001.5 20 1001.5 19.4C1001.5 18.8 1002 18.3 1002.5 18.3H1006.2V14.6C1006.2 14 1006.7 13.5 1007.3 13.5C1007.9 13.5 1008.4 14 1008.4 14.6V18.3H1012.1C1012.7 18.3 1013.2 18.8 1013.2 19.4C1013.2 20 1012.7 20.5 1012.1 20.5ZM1018 123.3C1016.9 123.3 1016 122.4 1016 121.3C1016 120.2 1016.9 119.3 1018 119.3C1019.1 119.3 1020 120.2 1020 121.3C1020 122.3 1019.1 123.3 1018 123.3ZM1038.1 22.1C1038.1 21 1039 20.1 1040.1 20.1C1041.2 20.1 1042.1 21 1042.1 22.1C1042.1 23.2 1041.2 24.1 1040.1 24.1C1039 24.1 1038.1 23.2 1038.1 22.1ZM1038.7 87.7C1038.7 86.6 1039.6 85.7 1040.7 85.7C1041.8 85.7 1042.7 86.6 1042.7 87.7C1042.7 88.8 1041.8 89.7 1040.7 89.7C1039.6 89.7 1038.7 88.8 1038.7 87.7ZM1044 141.1C1042.9 141.1 1042 140.2 1042 139.1C1042 138 1042.9 137.1 1044 137.1C1045.1 137.1 1046 138 1046 139.1C1046 140.2 1045.1 141.1 1044 141.1ZM1058.7 130C1057.6 130 1056.7 129.1 1056.7 128C1056.7 126.9 1057.6 126 1058.7 126C1059.8 126 1060.7 126.9 1060.7 128C1060.7 129.1 1059.8 130 1058.7 130ZM1213.5 41.8L1253.6 31.9C1254.2 31.8 1254.7 32.1 1254.9 32.7C1255 33.3 1254.7 33.8 1254.1 34L1214 43.9C1213.9 43.9 1213.8 43.9 1213.7 43.9C1213.2 43.9 1212.8 43.6 1212.7 43.1C1212.6 42.5 1213 41.9 1213.5 41.8ZM1096.4 58.5H1092.7V62.2C1092.7 62.8 1092.2 63.3 1091.7 63.3C1091.1 63.3 1090.6 62.8 1090.6 62.2V58.5H1086.9C1086.3 58.5 1085.8 58 1085.8 57.4C1085.8 56.8 1086.3 56.3 1086.9 56.3H1090.6V52.6C1090.6 52 1091.1 51.5 1091.7 51.5C1092.3 51.5 1092.7 52 1092.7 52.6V56.3H1096.4C1097 56.3 1097.5 56.8 1097.5 57.4C1097.5 58 1096.9 58.5 1096.4 58.5ZM1099.7 111.8C1098.6 111.8 1097.7 110.9 1097.7 109.8C1097.7 108.7 1098.6 107.8 1099.7 107.8C1100.8 107.8 1101.7 108.7 1101.7 109.8C1101.7 110.9 1100.8 111.8 1099.7 111.8ZM1132.6 22.2C1130.8 22.2 1129.4 20.8 1129.4 19C1129.4 17.2 1130.8 15.8 1132.6 15.8C1134.4 15.8 1135.8 17.2 1135.8 19C1135.8 20.8 1134.4 22.2 1132.6 22.2ZM1153.1 119.3C1152 119.3 1151.1 118.4 1151.1 117.3C1151.1 116.2 1152 115.3 1153.1 115.3C1154.2 115.3 1155.1 116.2 1155.1 117.3C1155.1 118.4 1154.2 119.3 1153.1 119.3ZM1172.9 77.5C1171.8 77.5 1170.9 76.6 1170.9 75.5C1170.9 74.4 1171.8 73.5 1172.9 73.5C1174 73.5 1174.9 74.4 1174.9 75.5C1174.9 76.6 1174 77.5 1172.9 77.5ZM1207.3 46.8C1206.2 46.8 1205.3 45.9 1205.3 44.8C1205.3 43.7 1206.2 42.8 1207.3 42.8C1208.4 42.8 1209.3 43.7 1209.3 44.8C1209.3 45.9 1208.4 46.8 1207.3 46.8ZM1221.1 97.1C1220 97.1 1219.1 96.2 1219.1 95.1C1219.1 94 1220 93.1 1221.1 93.1C1222.2 93.1 1223.1 94 1223.1 95.1C1223.1 96.2 1222.2 97.1 1221.1 97.1ZM1234 68.7C1233.8 68.9 1233.5 69.1 1233.2 69.1C1233 69.1 1232.7 69 1232.5 68.8L1211 49.8C1210.6 49.4 1210.5 48.8 1210.9 48.3C1211.3 47.9 1211.9 47.8 1212.4 48.2L1233.9 67.2C1234.4 67.6 1234.4 68.3 1234 68.7ZM1238.2 75C1237.1 75 1236.2 74.1 1236.2 73C1236.2 71.9 1237.1 71 1238.2 71C1239.3 71 1240.2 71.9 1240.2 73C1240.3 74.1 1239.3 75 1238.2 75ZM1259.4 38.3L1244.5 65.6C1244.3 65.9 1243.9 66.1 1243.6 66.1C1243.4 66.1 1243.3 66.1 1243.1 66C1242.6 65.7 1242.4 65.1 1242.7 64.6L1257.6 37.3C1257.9 36.8 1258.5 36.6 1259 36.9C1259.5 37.2 1259.6 37.8 1259.4 38.3ZM1260.7 30.7C1260.7 29.6 1261.6 28.7 1262.7 28.7C1263.8 28.7 1264.7 29.6 1264.7 30.7C1264.7 31.8 1263.8 32.7 1262.7 32.7C1261.6 32.7 1260.7 31.8 1260.7 30.7ZM1269.3 120.6H1267.1V122.8C1267.1 123.4 1266.6 123.9 1266 123.9C1265.4 123.9 1264.9 123.4 1264.9 122.8V120.6H1262.7C1262.1 120.6 1261.6 120.1 1261.6 119.5C1261.6 118.9 1262.1 118.4 1262.7 118.4H1264.9V116.2C1264.9 115.6 1265.4 115.1 1266 115.1C1266.6 115.1 1267.1 115.6 1267.1 116.2V118.4H1269.3C1269.9 118.4 1270.4 118.9 1270.4 119.5C1270.4 120.1 1269.9 120.6 1269.3 120.6ZM1288.7 50.6C1287.6 50.6 1286.7 49.7 1286.7 48.6C1286.7 47.5 1287.6 46.6 1288.7 46.6C1289.8 46.6 1290.7 47.5 1290.7 48.6C1290.7 49.7 1289.8 50.6 1288.7 50.6ZM1295.5 15.2C1294.4 15.2 1293.5 14.3 1293.5 13.2C1293.5 12.1 1294.4 11.2 1295.5 11.2C1296.6 11.2 1297.5 12.1 1297.5 13.2C1297.5 14.3 1296.6 15.2 1295.5 15.2ZM1316.2 98.8C1314.4 98.8 1313 97.4 1313 95.6C1313 93.8 1314.4 92.4 1316.2 92.4C1318 92.4 1319.4 93.8 1319.4 95.6C1319.4 97.4 1318 98.8 1316.2 98.8ZM1346.8 78.9C1345.7 78.9 1344.8 78 1344.8 76.9C1344.8 75.8 1345.7 74.9 1346.8 74.9C1347.9 74.9 1348.8 75.8 1348.8 76.9C1348.8 78 1348 78.9 1346.8 78.9ZM1354.3 132.3C1353.2 132.3 1352.3 131.4 1352.3 130.3C1352.3 129.2 1353.2 128.3 1354.3 128.3C1355.4 128.3 1356.3 129.2 1356.3 130.3C1356.3 131.4 1355.4 132.3 1354.3 132.3ZM1369 10.9C1367.9 10.9 1367 10 1367 8.9C1367 7.8 1367.9 6.9 1369 6.9C1370.1 6.9 1371 7.8 1371 8.9C1371 10 1370.1 10.9 1369 10.9ZM1388.6 59.1C1387.5 59.1 1386.6 58.2 1386.6 57.1C1386.6 56 1387.5 55.1 1388.6 55.1C1389.7 55.1 1390.6 56 1390.6 57.1C1390.6 58.2 1389.7 59.1 1388.6 59.1ZM1419.3 24.6C1418.2 24.6 1417.3 23.7 1417.3 22.6C1417.3 21.5 1418.2 20.6 1419.3 20.6C1420.4 20.6 1421.3 21.5 1421.3 22.6C1421.3 23.7 1420.4 24.6 1419.3 24.6ZM1445 100.5C1443.2 100.5 1441.8 99.1 1441.8 97.3C1441.8 95.5 1443.2 94.1 1445 94.1C1446.8 94.1 1448.2 95.5 1448.2 97.3C1448.2 99.1 1446.8 100.5 1445 100.5ZM1473.4 130C1473.1 131.1 1472 131.7 1470.9 131.4C1469.8 131.1 1469.2 130 1469.5 128.9C1469.8 127.8 1470.9 127.2 1472 127.5C1473 127.8 1473.7 128.9 1473.4 130ZM1656.4 73.6H1660.1V69.9C1660.1 69.3 1660.6 68.8 1661.2 68.8C1661.8 68.8 1662.3 69.3 1662.3 69.9V73.6H1666C1666.6 73.6 1667.1 74.1 1667.1 74.7C1667.1 75.3 1666.6 75.8 1666 75.8H1662.3V79.5C1662.3 80.1 1661.8 80.6 1661.2 80.6C1660.6 80.6 1660.1 80.1 1660.1 79.5V75.8H1656.4C1655.8 75.8 1655.3 75.3 1655.3 74.7C1655.3 74.1 1655.8 73.6 1656.4 73.6ZM1630.9 123.5C1632 123.5 1632.9 124.4 1632.9 125.5C1632.9 126.6 1632 127.5 1630.9 127.5C1629.8 127.5 1628.9 126.6 1628.9 125.5C1628.9 124.4 1629.8 123.5 1630.9 123.5ZM1608.8 64.6C1609.9 64.6 1610.8 65.5 1610.8 66.6C1610.8 67.7 1609.9 68.6 1608.8 68.6C1607.7 68.6 1606.8 67.7 1606.8 66.6C1606.8 65.5 1607.7 64.6 1608.8 64.6ZM1601.4 11.2C1602.5 11.2 1603.4 12.1 1603.4 13.2C1603.4 14.3 1602.5 15.2 1601.4 15.2C1600.3 15.2 1599.4 14.3 1599.4 13.2C1599.3 12.1 1600.2 11.2 1601.4 11.2ZM1590.6 105.6C1591.7 105.6 1592.6 106.5 1592.6 107.6C1592.6 108.7 1591.7 109.6 1590.6 109.6C1589.5 109.6 1588.6 108.7 1588.6 107.6C1588.6 106.5 1589.5 105.6 1590.6 105.6ZM1585.8 103.4C1585.4 103.8 1584.7 103.7 1584.3 103.3L1568.3 84.2C1568.1 84 1568.1 83.8 1568.1 83.5C1568.1 83.2 1568.2 82.9 1568.5 82.7C1568.9 82.3 1569.6 82.4 1570 82.8L1586 101.9C1586.3 102.4 1586.3 103.1 1585.8 103.4ZM1570.7 28.8C1572.5 28.8 1573.9 30.2 1573.9 32C1573.9 33.8 1572.5 35.2 1570.7 35.2C1568.9 35.2 1567.5 33.8 1567.5 32C1567.5 30.2 1569 28.8 1570.7 28.8ZM1562.8 75.8C1563.9 75.8 1564.8 76.7 1564.8 77.8C1564.8 78.9 1563.9 79.8 1562.8 79.8C1561.7 79.8 1560.8 78.9 1560.8 77.8C1560.8 76.7 1561.7 75.8 1562.8 75.8ZM1538.9 114C1540 114 1540.9 114.9 1540.9 116C1540.9 117.1 1540 118 1538.9 118C1537.8 118 1536.9 117.1 1536.9 116C1536.9 114.9 1537.8 114 1538.9 114ZM1524.2 19.5C1525.3 19.5 1526.2 20.4 1526.2 21.5C1526.2 22.6 1525.3 23.5 1524.2 23.5C1523.1 23.5 1522.2 22.6 1522.2 21.5C1522.2 20.4 1523.1 19.5 1524.2 19.5ZM1496.3 115C1496.6 113.9 1497.7 113.3 1498.8 113.6C1499.9 113.9 1500.5 115 1500.2 116.1C1499.9 117.2 1498.8 117.8 1497.7 117.5C1496.6 117.2 1496 116.1 1496.3 115ZM1492.8 118.7C1493.1 119.2 1492.8 119.8 1492.3 120.1L1478.3 127C1477.8 127.3 1477.2 127 1476.9 126.5C1476.8 126.4 1476.8 126.2 1476.8 126C1476.8 125.6 1477 125.2 1477.4 125.1L1491.4 118.2C1492 117.9 1492.6 118.1 1492.8 118.7ZM1484.6 55.1H1482.4V57.3C1482.4 57.9 1481.9 58.4 1481.3 58.4C1480.7 58.4 1480.3 57.9 1480.3 57.3V55.1H1478.1C1477.5 55.1 1477 54.6 1477 54C1477 53.4 1477.5 52.9 1478.1 52.9H1480.3V50.7C1480.3 50.1 1480.8 49.6 1481.3 49.6C1481.9 49.6 1482.4 50.1 1482.4 50.7V53H1484.6C1485.2 53 1485.6 53.5 1485.6 54.1C1485.7 54.6 1485.2 55.1 1484.6 55.1Z" fill="#EB5736"/>
</svg>
